<?xml version="1.0" standalone="no"?>
<!DOCTYPE svg PUBLIC "-//W3C//DTD SVG 20010904//EN"
 "http://www.w3.org/TR/2001/REC-SVG-20010904/DTD/svg10.dtd">
<svg version="1.0" xmlns="http://www.w3.org/2000/svg"
 width="1280.000000pt" height="1324.000000pt" viewBox="0 0 1280.000000 1324.000000"
 preserveAspectRatio="xMidYMid meet">
<metadata>
Created by potrace 1.16, written by Peter Selinger 2001-2019
</metadata>
<g transform="translate(0.000000,1324.000000) scale(0.100000,-0.100000)"
fill="#000000" stroke="none">
<path d="M1166 11572 c-7 -11 -434 -1227 -442 -1257 -3 -14 -2 -25 4 -25 5 0
39 84 75 188 82 235 373 1061 382 1085 7 17 -9 25 -19 9z"/>
<path d="M460 10620 c0 -460 3 -700 10 -700 7 0 10 240 10 700 0 460 -3 700
-10 700 -7 0 -10 -240 -10 -700z"/>
<path d="M10935 11123 c-42 -10 -141 -56 -180 -83 -24 -16 -53 -50 -70 -82
-28 -49 -30 -59 -27 -140 7 -206 6 -247 -7 -328 -20 -119 -3 -173 78 -263 47
-51 60 -74 65 -109 13 -84 17 -96 45 -126 l27 -31 50 27 c27 15 58 32 68 38
10 6 30 46 45 89 24 71 29 78 62 89 104 36 188 157 220 320 l12 58 24 -81 c54
-189 130 -345 168 -346 35 0 185 -58 185 -71 0 -12 89 -48 98 -39 3 3 1 5 -5
5 -6 0 -20 22 -32 49 -16 38 -21 70 -21 136 0 133 -16 161 -156 271 -46 36
-86 76 -92 91 -6 16 -13 67 -15 115 -5 92 -35 178 -81 228 -13 14 -29 40 -36
58 -33 84 -148 133 -309 131 -53 -1 -105 -4 -116 -6z m270 -356 c18 -47 23
-52 53 -55 20 -2 47 5 68 17 48 29 69 27 84 -8 21 -52 -9 -106 -66 -117 -30
-5 -34 -10 -44 -57 -25 -120 -120 -252 -198 -278 -89 -29 -195 12 -261 103
l-32 43 31 6 c39 8 56 23 65 56 8 34 -10 77 -40 93 -23 12 -63 10 -96 -4 -13
-6 -18 4 -26 56 -6 35 -9 64 -8 66 1 2 19 4 38 5 20 2 46 12 59 24 36 33 94
45 199 41 l96 -3 24 32 c13 18 26 33 29 33 3 0 14 -24 25 -53z"/>
<path d="M11155 10649 c-43 -25 -58 -75 -35 -119 14 -27 64 -41 100 -28 75 26
64 140 -15 153 -16 3 -39 0 -50 -6z"/>
<path d="M1578 10978 c-14 -18 -91 -130 -173 -248 -82 -118 -241 -347 -353
-508 -112 -161 -202 -296 -198 -299 8 -8 -15 -38 198 267 495 711 562 809 555
816 -3 3 -16 -10 -29 -28z"/>
<path d="M0 9810 c0 -7 198 -10 574 -10 373 0 577 4 581 10 4 7 -190 10 -574
10 -381 0 -581 -3 -581 -10z"/>
<path d="M9480 9599 c-36 -50 -75 -95 -88 -100 -13 -5 -26 -18 -29 -29 -3 -11
-14 -22 -24 -25 -10 -4 -22 -17 -25 -31 -4 -13 -15 -29 -25 -35 -11 -5 -19
-18 -19 -28 0 -10 -9 -26 -20 -36 -11 -10 -19 -27 -18 -39 2 -18 -183 -292
-217 -321 -13 -12 -95 -122 -95 -129 0 -6 82 -66 90 -66 7 0 90 116 90 126 0
11 261 373 275 382 7 4 14 16 16 27 3 12 14 21 27 23 15 2 22 10 22 26 0 17 6
22 23 22 19 -1 22 4 23 34 0 27 15 56 67 126 66 90 80 127 55 152 -7 7 -24 12
-38 12 -21 0 -37 -16 -90 -91z"/>
<path d="M0 9660 c0 -7 190 -10 550 -10 360 0 550 3 550 10 0 7 -190 10 -550
10 -360 0 -550 -3 -550 -10z"/>
<path d="M0 6928 l0 -2308 695 0 695 0 0 2310 0 2310 -695 -3 -695 -2 0 -2307z
m930 2 l0 -2210 -425 0 -425 0 0 2210 0 2210 425 0 425 0 0 -2210z m350 0 l0
-2210 -120 0 -120 0 0 2210 0 2210 120 0 120 0 0 -2210z"/>
<path d="M10825 8420 c-16 -27 -33 -50 -37 -50 -4 0 -8 -6 -8 -13 0 -14 -29
-78 -39 -87 -3 -3 -6 -9 -6 -15 0 -5 -15 -57 -34 -115 -96 -304 -115 -450
-156 -1210 -18 -341 -52 -1096 -61 -1376 l-7 -201 33 -6 c41 -9 517 -9 557 -1
l30 6 82 410 c46 225 81 411 79 412 -1 2 -68 9 -148 15 -80 7 -201 21 -270 31
-115 17 -126 20 -152 48 -34 39 -35 52 -48 407 -13 367 -13 717 0 865 20 230
79 492 174 773 29 86 50 157 46 157 -3 0 -19 -22 -35 -50z"/>
<path d="M3055 8416 c-215 -49 -365 -177 -388 -331 -6 -35 7 -118 29 -192 5
-17 2 -23 -10 -23 -29 0 -92 -38 -124 -74 -78 -89 -46 -263 54 -296 46 -15
172 -9 183 9 8 13 25 127 36 254 l7 67 -36 0 c-60 0 -102 63 -77 116 16 35 59
33 91 -6 l25 -31 41 29 c56 41 84 89 84 145 l0 46 38 -16 c49 -20 48 -18 16
-47 -29 -24 -28 -50 1 -26 30 25 92 28 162 8 38 -10 101 -19 141 -19 l72 0 0
-30 c0 -47 18 -33 36 28 20 69 15 182 -10 233 -64 126 -218 190 -371 156z"/>
<path d="M12414 8082 c-1 -200 -12 -334 -60 -682 -27 -202 -118 -766 -158
-979 -27 -145 -41 -172 -100 -190 -84 -27 -357 -61 -488 -61 l-56 0 -4 -407
c-2 -225 -2 -411 0 -415 2 -5 138 -8 302 -8 l300 0 5 23 c9 43 115 665 190
1117 91 553 147 924 177 1167 l22 182 -63 223 c-35 123 -64 224 -65 225 0 1
-1 -87 -2 -195z"/>
<path d="M7910 7140 c0 -660 3 -1000 10 -1000 7 0 10 340 10 1000 0 660 -3
1000 -10 1000 -7 0 -10 -340 -10 -1000z"/>
<path d="M3314 7327 c14 -92 15 -144 6 -262 -10 -121 -44 -378 -56 -418 -5
-16 -21 -17 -206 -15 l-202 3 -84 350 c-47 193 -86 351 -87 353 -2 2 -33 -12
-69 -30 -50 -24 -65 -36 -60 -48 10 -22 69 -427 99 -673 38 -324 58 -597 53
-748 l-4 -136 264 -143 264 -143 50 11 c27 7 72 12 99 12 58 0 64 -15 19 -56
l-29 -28 48 -21 c63 -26 84 -44 77 -68 -2 -10 4 -27 15 -38 34 -34 19 -78 -25
-70 -17 2 -17 1 -2 -20 41 -60 8 -61 -93 -5 -33 19 -61 33 -61 31 0 -2 11 -21
25 -41 31 -45 31 -54 2 -54 -43 0 -154 87 -193 152 -5 8 -85 36 -179 62 -93
26 -283 85 -420 131 -138 45 -271 86 -295 90 -25 4 -59 13 -77 20 -31 13 -32
13 -37 -13 -9 -47 -18 -163 -17 -216 0 -28 -4 -71 -10 -96 -6 -25 -48 -417
-93 -872 l-83 -827 -55 -68 c-45 -57 -321 -407 -645 -821 -40 -52 -73 -97 -72
-100 0 -4 36 -36 79 -71 43 -35 97 -81 119 -102 22 -22 43 -39 47 -39 3 0 41
31 83 68 1015 905 1015 905 1060 1028 38 103 176 549 276 889 42 143 78 265
79 270 6 19 14 -20 110 -535 53 -283 150 -804 216 -1157 l120 -643 -171 -307
c-182 -327 -274 -493 -382 -688 -38 -68 -71 -141 -76 -168 -15 -83 11 -151 72
-184 30 -17 268 -18 5010 -21 l4977 -2 0 95 0 95 -4981 0 c-3981 0 -4980 3
-4976 13 2 6 114 208 247 447 134 239 259 464 279 500 40 73 37 76 61 -52 l11
-58 37 1 c52 0 261 24 266 30 3 3 8 180 12 394 l7 390 181 327 181 328 81 0
81 0 120 -247 c103 -211 119 -249 107 -261 -8 -7 -14 -17 -14 -21 0 -4 47 -90
105 -190 58 -101 104 -185 103 -186 -2 -2 -85 -42 -186 -91 -208 -99 -210
-102 -172 -185 13 -27 24 -49 25 -49 2 0 119 57 261 126 143 70 346 168 452
220 l193 93 -26 50 c-41 82 -40 82 -240 -14 -98 -47 -181 -85 -184 -85 -4 0
-42 88 -86 195 -73 182 -81 195 -104 195 -24 0 -35 19 -131 216 -58 119 -106
220 -108 225 -2 5 1699 9 3965 9 l3968 0 230 -414 230 -414 3 104 3 104 -163
293 c-90 160 -176 307 -193 326 -16 19 -50 44 -75 55 l-45 21 -3978 3 -3977 2
-151 308 c-83 169 -207 421 -275 559 -68 139 -124 255 -124 258 0 2 -13 27
-30 53 -16 27 -30 58 -30 68 -1 13 -6 8 -15 -13 -15 -36 -25 -39 -58 -21 -12
7 -34 11 -49 9 -21 -2 -29 3 -33 21 -3 13 -16 28 -28 33 -23 10 -26 27 -13 80
6 28 4 31 -26 40 -50 15 -45 50 12 93 25 18 52 39 60 45 8 7 33 85 54 174 l40
161 -43 393 c-23 215 -46 401 -50 413 -5 12 -11 56 -15 98 -10 119 -61 452
-117 773 -28 160 -52 300 -53 313 -3 28 -2 27 -64 46 l-53 15 5 -32z m847
-3732 c38 -77 69 -144 69 -147 0 -4 -21 -10 -47 -13 -76 -10 -129 -33 -165
-73 -18 -20 -80 -121 -137 -224 -57 -104 -105 -188 -107 -188 -2 0 -4 323 -3
718 l0 717 160 -325 c88 -179 191 -388 230 -465z"/>
<path d="M5165 7242 c-49 -5 -561 -108 -682 -137 -100 -24 -116 -30 -143 -61
-17 -19 -30 -47 -31 -62 -7 -259 74 -611 212 -909 56 -124 61 -126 279 -120
143 4 354 28 367 41 2 2 -13 38 -32 81 -82 179 -144 407 -165 608 -14 129 -9
165 28 200 27 26 84 43 314 92 l76 17 -29 71 c-56 134 -78 161 -149 179 -8 2
-28 2 -45 0z"/>
<path d="M6968 6113 c479 -2 872 -5 872 -7 0 -8 50 -246 60 -288 7 -27 15 -48
19 -48 4 0 26 76 50 170 l44 170 1231 3 1231 2 -1236 3 -1236 2 -38 -147 c-20
-82 -40 -151 -44 -156 -7 -7 -18 39 -63 256 l-10 47 -876 -2 -877 -3 873 -2z"/>
<path d="M6142 5703 c775 -2 2041 -2 2815 0 775 1 141 2 -1407 2 -1548 0
-2182 -1 -1408 -2z"/>
<path d="M12676 5269 c-197 -15 -346 -49 -346 -79 0 -16 29 -38 57 -44 16 -4
62 2 103 13 41 10 107 22 145 25 39 4 91 9 118 12 l47 6 0 39 c0 21 -3 38 -7
38 -5 -1 -57 -6 -117 -10z"/>
<path d="M12355 5078 c23 -106 62 -217 111 -317 46 -93 68 -126 127 -185 65
-65 167 -136 196 -136 8 0 11 87 11 313 l0 314 -122 7 c-68 3 -163 13 -213 21
-123 20 -118 21 -110 -17z"/>
<path d="M4190 4953 l0 -88 340 3 340 3 -46 -128 c-25 -71 -67 -189 -94 -263
-26 -74 -69 -193 -95 -265 -82 -228 -103 -294 -97 -299 3 -3 43 -6 88 -6 77 0
83 2 90 23 4 12 22 56 41 97 28 61 152 338 208 465 7 17 32 70 54 118 23 49
41 91 41 94 0 3 16 40 37 84 l36 79 385 0 c361 0 384 -1 379 -17 -3 -10 -19
-56 -37 -103 -40 -108 -71 -196 -120 -335 -21 -60 -57 -161 -79 -222 l-41
-113 76 0 75 0 18 43 c26 60 57 128 107 236 24 51 44 95 44 98 0 4 70 159 130
289 21 45 41 91 45 103 l6 21 1770 0 c1676 0 1770 -1 1776 -17 6 -18 97 -221
132 -298 10 -22 24 -51 29 -65 6 -14 36 -80 66 -147 31 -67 56 -124 56 -127 0
-3 14 -35 31 -71 l32 -65 51 0 c28 0 61 3 72 6 l22 6 -25 66 c-22 59 -57 159
-173 487 -17 50 -35 99 -40 110 -5 11 -15 41 -24 68 l-15 47 310 0 309 0 0 33
c0 17 3 56 6 85 l7 52 -3162 0 -3161 0 0 -87z"/>
<path d="M10976 4971 c-9 -39 -16 -77 -16 -85 0 -14 36 -16 305 -16 l305 0 0
85 0 85 -289 0 -289 0 -16 -69z"/>
<path d="M12363 4845 c3 -11 27 -211 53 -444 l48 -424 34 -14 c33 -14 217 -42
275 -43 l27 0 0 218 0 219 -75 37 c-141 69 -260 208 -325 379 -31 79 -49 114
-37 72z"/>
<path d="M10935 4783 c-4 -21 -15 -74 -25 -118 -10 -44 -22 -98 -25 -120 -4
-22 -11 -53 -16 -70 -13 -43 -20 -113 -10 -97 6 10 13 3 24 -25 8 -21 26 -63
40 -93 13 -30 33 -75 43 -99 11 -25 40 -90 66 -145 l46 -101 86 -3 c50 -2 86
1 86 7 0 5 -23 71 -51 148 -28 76 -56 154 -61 173 -6 19 -16 49 -23 65 -15 35
-48 126 -51 140 -4 15 -82 233 -103 287 -11 26 -17 57 -14 68 3 11 3 20 0 20
-4 0 -9 -17 -12 -37z"/>
<path d="M6412 3233 c1028 -2 2708 -2 3735 0 1028 1 187 2 -1867 2 -2054 0
-2895 -1 -1868 -2z"/>
<path d="M942 2310 c-6 -11 -12 -22 -12 -25 0 -8 599 -455 609 -455 17 0 36
43 22 48 -9 3 -160 110 -181 129 -8 7 24 23 63 29 35 6 47 17 29 28 -5 3 -34
-4 -64 -16 l-56 -20 -163 122 c-90 68 -177 136 -193 151 -34 34 -37 35 -54 9z"/>
<path d="M3960 1747 l-25 -52 -205 -41 c-268 -53 -260 -51 -260 -74 0 -17 5
-19 33 -13 17 4 183 36 367 72 278 55 335 69 338 84 5 22 -26 22 -143 -3 -49
-10 -91 -17 -93 -15 -2 1 4 20 12 40 18 42 20 55 9 55 -5 0 -19 -24 -33 -53z"/>
<path d="M3550 1270 c0 -7 1548 -10 4625 -10 3077 0 4625 3 4625 10 0 7 -1548
10 -4625 10 -3077 0 -4625 -3 -4625 -10z"/>
</g>
</svg>
